<svg xmlns="http://www.w3.org/2000/svg" width="22" height="21" viewBox="0 0 22 21"><defs><style>.a{fill:none;}.b,.c{fill:#a0a2b3;}.b{opacity:0.3;}.c{fill-rule:evenodd;}</style></defs><g transform="translate(0.213 -0.275)"><rect class="a" width="22" height="21" transform="translate(-0.213 0.275)"/><path class="b" d="M11.325,4.274,7.569,8.781A.887.887,0,1,1,6.206,7.644l4.438-5.325a.887.887,0,0,1,1.364,0l4.438,5.325a.887.887,0,1,1-1.364,1.136Z" transform="translate(-0.675 -0.225)"/><path class="c" d="M3.168,9H18.645a.888.888,0,0,1,.861,1.1l-1.883,7.531A2.662,2.662,0,0,1,15.04,19.65H6.773A2.663,2.663,0,0,1,4.19,17.633L2.307,10.1A.887.887,0,0,1,3.168,9Zm7.738,2.662a.887.887,0,0,0-.887.887V16.1a.887.887,0,0,0,1.775,0V12.55A.887.887,0,0,0,10.907,11.662Zm-4.469.121A.887.887,0,0,0,5.81,12.87L6.729,16.3a.887.887,0,1,0,1.715-.459l-.919-3.429A.888.888,0,0,0,6.438,11.783Zm8.938,0a.888.888,0,0,0-1.087.628L13.37,15.84a.887.887,0,1,0,1.714.459L16,12.87A.888.888,0,0,0,15.375,11.783Z" transform="translate(-0.257 -1.013)"/></g></svg>