<svg xmlns="http://www.w3.org/2000/svg" width="22" height="21" viewBox="0 0 22 21"><defs><style>.a{fill:none;}.b{fill:#129a7f;fill-rule:evenodd;}</style></defs><g transform="translate(0.25 -0.275)"><rect class="a" width="22" height="21" transform="translate(-0.25 0.275)"/><path class="b" d="M3.849,7.882,10.525,3.8a.888.888,0,0,1,.926,0l6.675,4.079A1.775,1.775,0,0,1,18.975,9.4v7.88A1.775,1.775,0,0,1,17.2,19.051H4.775A1.775,1.775,0,0,1,3,17.276V9.4A1.775,1.775,0,0,1,3.849,7.882Zm5.363,4.069a.887.887,0,0,0-.887.888V15.5a.887.887,0,0,0,.887.888h3.55a.887.887,0,0,0,.887-.888V12.838a.887.887,0,0,0-.887-.888Z" transform="translate(-0.337 -0.413)"/></g></svg>